<svg width="237" height="70" viewBox="0 0 237 70" fill="none" xmlns="http://www.w3.org/2000/svg">
<path d="M8.51495 6.92664H29.9869C32.5276 6.94931 35.0498 7.36364 37.4658 8.15521C39.981 8.94258 42.336 10.1763 44.4197 11.7981C46.5268 13.4544 48.271 15.5311 49.5429 17.8981C50.9289 20.5353 51.618 23.4869 51.5439 26.4695C51.5544 29.1031 50.962 31.7037 49.8126 34.0695C48.665 36.4385 47.075 38.5629 45.1293 40.3266C43.1169 42.1699 40.7834 43.6228 38.2464 44.6124C35.6031 45.5886 32.8018 46.0586 29.9869 45.9981H19.2438L51.5014 65.7266H39.7365L12.446 48.7267V40.0695H32.0163C33.6634 40.0554 35.2922 39.7206 36.813 39.0838C40.1364 37.7168 42.8508 35.1774 44.4481 31.9409C45.2968 30.1993 45.7247 28.2806 45.697 26.3409C45.7074 24.5028 45.32 22.6845 44.5617 21.0124C43.8184 19.4087 42.789 17.9561 41.5247 16.7266C40.2621 15.48 38.7861 14.4733 37.1678 13.7552C35.5452 13.0323 33.7907 12.6577 32.0163 12.6552H8.51495V6.92664Z" fill="#FCEA10"/>
<path d="M63.4936 65.7981V16.6267H68.4039V65.7981H63.4936Z" fill="#FCEA10"/>
<path d="M78.3116 16.4265H91.2828C93.9273 16.4743 96.5364 17.0472 98.9604 18.1122C101.726 19.264 104.257 20.9204 106.425 22.9979C108.78 25.2278 110.705 27.8772 112.102 30.8122C113.531 33.9839 114.289 37.4201 114.328 40.9025C114.367 44.3849 113.686 47.8375 112.329 51.0408C111.072 53.9492 109.292 56.5986 107.078 58.8551C104.962 61.0264 102.465 62.7846 99.7126 64.0408C97.0794 65.2703 94.2138 65.9135 91.3112 65.9265H89.892V60.9694C92.4153 60.9718 94.9157 60.4868 97.2575 59.5408C99.5992 58.5956 101.746 57.2198 103.587 55.4837C106.407 52.7382 108.353 49.2106 109.177 45.3492C110.001 41.4878 109.665 37.467 108.213 33.7979C106.338 29.006 102.698 25.1272 98.0522 22.9694C95.4912 21.7984 92.7044 21.2129 89.892 21.2551H78.3116V16.4265Z" fill="#FCEA10"/>
<path d="M163.786 16.3553V21.3125H124.518V16.3553H163.786ZM163.857 42.6982H129.442V60.8411H163.857V65.7982H124.518V37.7411H163.857V42.6982Z" fill="#FCEA10"/>
<path d="M180.931 6.52698L226.799 65.6841H219.348L199.764 40.6555L181.513 65.6841H173.637L196.216 35.6841L173.509 6.54128L180.931 6.52698Z" fill="#FCEA10"/>
<path d="M10.361 6.92664H31.8329C34.3742 6.94222 36.8975 7.35672 39.3119 8.15521C41.8314 8.94244 44.1911 10.1761 46.2799 11.7981C48.3861 13.4456 50.1264 15.5186 51.3889 17.8838C52.7713 20.5224 53.4602 23.473 53.3899 26.4552C53.4072 29.0941 52.8145 31.7009 51.6586 34.0695C50.5143 36.4364 48.9237 38.5567 46.9753 40.3124C44.9661 42.1598 42.6318 43.6133 40.0924 44.5981C37.4508 45.5818 34.6489 46.0567 31.8329 45.9981H21.1324L53.3899 65.7124H41.5967L14.292 48.7695V40.0981H33.8055C35.4526 40.0839 37.0815 39.7492 38.6023 39.1124C40.2321 38.4429 41.7239 37.474 43.0017 36.2552C44.3321 35.0384 45.4289 33.5857 46.2374 31.9695C47.0405 30.2646 47.4665 28.4045 47.4861 26.5178C47.5057 24.631 47.1184 22.7624 46.3509 21.0409C45.6111 19.4389 44.5866 17.9865 43.3281 16.7552C42.0578 15.5115 40.5777 14.5053 38.9571 13.7838C37.3344 13.0609 35.58 12.6862 33.8055 12.6838H10.361V6.92664Z" fill="#FCEA10"/>
<path d="M65.3396 65.7839V16.6267H70.2499V65.7839H65.3396Z" fill="#FCEA10"/>
<path d="M80.1549 16.4265H93.1402C95.78 16.4758 98.3841 17.0487 100.804 18.1122C103.572 19.2674 106.107 20.9233 108.283 22.9979C110.642 25.2242 112.567 27.8744 113.959 30.8122C115.485 34.0709 116.248 37.6387 116.187 41.2408C116.217 44.6132 115.535 47.9535 114.186 51.0408C112.926 53.9436 111.151 56.5914 108.95 58.8551C106.826 61.0236 104.324 62.7813 101.57 64.0408C98.9418 65.27 96.0808 65.9132 93.1828 65.9265H91.7636V60.9694C94.2922 60.9786 96.7985 60.4934 99.1433 59.5408C101.485 58.6038 103.628 57.2269 105.459 55.4837C107.392 53.6524 108.926 51.4371 109.964 48.9781C111.002 46.519 111.522 43.8697 111.49 41.1979C111.486 38.6863 111.004 36.1986 110.071 33.8694C108.218 29.0627 104.571 25.1763 99.9096 23.0408C97.3487 21.8698 94.5619 21.2843 91.7495 21.3265H80.1549V16.4265Z" fill="#FCEA10"/>
<path d="M165.646 16.3553V21.3125H126.377V16.3553H165.646ZM165.646 42.6839H131.359V60.8411H165.702V65.7839H126.377V37.7411H165.702L165.646 42.6839Z" fill="#FCEA10"/>
<path d="M182.775 6.52698L228.642 65.6841H221.177L201.579 40.6555L183.328 65.6841H175.466L198.045 35.6841L175.339 6.54128L182.775 6.52698Z" fill="#FCEA10"/>
<path d="M11.2119 6.86951H32.698C35.2347 6.88517 37.7533 7.2997 40.1628 8.09808C42.6803 8.8766 45.0399 10.1005 47.1309 11.7124C49.237 13.3599 50.9773 15.4329 52.2399 17.7981C53.5144 20.284 54.203 23.032 54.2522 25.829C54.3014 28.626 53.71 31.3969 52.5237 33.9267C51.3664 36.2896 49.7776 38.4122 47.8405 40.1838C45.8257 42.0239 43.4928 43.4765 40.9575 44.4695C38.3236 45.4945 35.5219 46.013 32.698 45.9981H21.9975L54.2551 65.7124H42.4477L15.1572 48.7124V40.0409H34.6565C36.3036 40.0268 37.9324 39.6921 39.4532 39.0552C41.0856 38.3826 42.5816 37.4142 43.8668 36.1981C45.1889 34.977 46.2804 33.525 47.0883 31.9124C47.9036 30.211 48.3365 28.3497 48.3561 26.4608C48.3757 24.572 47.9816 22.702 47.2018 20.9838C46.4721 19.3759 45.4464 17.9217 44.179 16.6981C42.9113 15.4512 41.4306 14.4446 39.808 13.7267C38.1863 13.0009 36.4312 12.6262 34.6565 12.6266H11.2119V6.86951Z" fill="#FCEA10"/>
<path d="M66.1906 65.7267V16.5696H71.115V65.7267H66.1906Z" fill="#FCEA10"/>
<path d="M81.0059 16.3694H93.9912C96.6309 16.4187 99.2351 16.9915 101.655 18.0551C104.425 19.2068 106.96 20.8631 109.134 22.9408C111.497 25.1633 113.423 27.8144 114.81 30.7551C116.336 34.0138 117.099 37.5816 117.038 41.1837C117.068 44.5561 116.386 47.8964 115.037 50.9837C113.777 53.8865 112.002 56.5343 109.801 58.798C107.677 60.9665 105.175 62.7242 102.421 63.9837C99.7928 65.2128 96.9318 65.8561 94.0338 65.8694H92.6146V60.9123C95.1427 60.9161 97.6479 60.4311 99.9942 59.4837C102.338 58.5354 104.484 57.1546 106.324 55.4122C109.149 52.6728 111.097 49.1467 111.919 45.2858C112.74 41.4248 112.398 37.4048 110.936 33.7408C110.017 31.3982 108.675 29.2475 106.977 27.398C105.217 25.5131 103.111 23.9897 100.775 22.9122C98.2149 21.7381 95.4274 21.1525 92.6146 21.198H81.0768L81.0059 16.3694Z" fill="#FCEA10"/>
<path d="M166.497 16.2982V21.2553H127.228V16.2982H166.497ZM166.568 42.6411H132.139V60.7839H166.568V65.7268H127.228V37.6839H166.568V42.6411Z" fill="#FCEA10"/>
<path d="M183.64 6.46973L229.493 65.6269H222.028L202.444 40.5983L184.179 65.6269H176.317L198.896 35.6269L176.189 6.484L183.64 6.46973Z" fill="#FCEA10"/>
<path d="M63.4936 65.7981V16.6267H68.4039V65.7981H63.4936Z" fill="white"/>
<path d="M78.3116 16.4265H91.2828C93.9273 16.4743 96.5364 17.0472 98.9604 18.1122C101.726 19.264 104.257 20.9204 106.425 22.9979C108.78 25.2278 110.705 27.8772 112.102 30.8122C113.531 33.9839 114.289 37.4201 114.328 40.9025C114.367 44.3849 113.686 47.8375 112.329 51.0408C111.068 53.947 109.289 56.5957 107.078 58.8551C104.962 61.0264 102.465 62.7846 99.7126 64.0408C97.0794 65.2703 94.2138 65.9135 91.3112 65.9265H89.892V60.9694C92.4153 60.9718 94.9157 60.4868 97.2575 59.5408C99.5992 58.5956 101.746 57.2198 103.587 55.4837C106.407 52.7382 108.353 49.2106 109.177 45.3492C110.001 41.4878 109.665 37.467 108.213 33.7979C106.338 29.006 102.698 25.1272 98.0522 22.9694C95.4912 21.7984 92.7044 21.2129 89.892 21.2551H78.3116V16.4265Z" fill="white"/>
<path d="M163.786 16.3553V21.3125H124.518V16.3553H163.786ZM163.857 42.6982H129.442V60.8411H163.857V65.7982H124.518V37.7411H163.857V42.6982Z" fill="white"/>
<path d="M180.931 6.52698L226.799 65.6841H219.348L199.764 40.6555L181.513 65.6841H173.637L196.216 35.6841L173.509 6.54128L180.931 6.52698Z" fill="white"/>
<path d="M66.1906 65.7267V16.5696H71.115V65.7267H66.1906Z" fill="white"/>
<path d="M81.0059 16.3694H93.9912C96.6309 16.4187 99.2351 16.9915 101.655 18.0551C104.425 19.2068 106.96 20.8631 109.134 22.9408C111.497 25.1633 113.423 27.8144 114.81 30.7551C116.336 34.0138 117.099 37.5816 117.038 41.1837C117.068 44.5561 116.386 47.8964 115.037 50.9837C113.777 53.8865 112.002 56.5343 109.801 58.798C107.677 60.9665 105.175 62.7242 102.421 63.9837C99.7928 65.2128 96.9318 65.8561 94.0338 65.8694H92.6146V60.9123C95.1433 60.923 97.6499 60.4377 99.9942 59.4837C102.34 58.5458 104.487 57.1691 106.324 55.4265C109.149 52.6871 111.097 49.161 111.919 45.3C112.74 41.4391 112.398 37.4191 110.936 33.7551C110.017 31.4125 108.675 29.2618 106.977 27.4123C105.217 25.5274 103.111 24.004 100.775 22.9265C98.2149 21.7524 95.4274 21.1667 92.6146 21.2122H81.0768L81.0059 16.3694Z" fill="white"/>
<path d="M166.497 16.2982V21.2553H127.228V16.2982H166.497ZM166.568 42.6411H132.153V60.7839H166.568V65.7268H127.228V37.6839H166.568V42.6411Z" fill="white"/>
<path d="M183.64 6.46973L229.493 65.684H222.028L202.444 40.6412L184.179 65.684H176.317L198.896 35.684L176.189 6.51258L183.64 6.46973Z" fill="white"/>
<path d="M181.72 13.7896L180.959 14.3846C180.686 14.0307 180.492 13.6469 180.379 13.2333C180.278 12.8212 180.253 12.4096 180.304 11.9983C180.355 11.5871 180.481 11.1944 180.68 10.8202C180.891 10.4476 181.172 10.1238 181.524 9.84872L186.605 5.8739L188.576 8.42634L187.815 9.02137L186.436 7.23467L182.115 10.6145C181.872 10.8049 181.676 11.0289 181.528 11.2867C181.385 11.5512 181.296 11.8286 181.259 12.1189C181.223 12.4092 181.242 12.7003 181.315 12.9922C181.396 13.2787 181.53 13.5445 181.72 13.7896Z" fill="#1D1D1B"/>
<path d="M183.507 17.7487C183.234 17.3948 183.041 17.011 182.927 16.5974C182.826 16.1854 182.801 15.7737 182.852 15.3625C182.904 14.9512 183.029 14.5585 183.228 14.1844C183.439 13.8117 183.721 13.4879 184.072 13.2129C184.417 12.9431 184.792 12.7539 185.196 12.6452C185.612 12.538 186.024 12.5102 186.433 12.5618C186.841 12.6134 187.231 12.7395 187.603 12.94C187.98 13.1473 188.305 13.4279 188.578 13.7819C188.846 14.129 189.031 14.5086 189.132 14.9207C189.239 15.3396 189.266 15.7546 189.215 16.1659C189.164 16.5771 189.035 16.9725 188.829 17.3519C188.63 17.726 188.358 18.048 188.013 18.3177L187.526 18.6986L185.556 16.1461L186.317 15.5511L187.696 17.3378C187.899 17.1791 188.055 16.9807 188.164 16.7426C188.278 16.5113 188.339 16.2611 188.349 15.992C188.358 15.7228 188.319 15.4476 188.232 15.1664C188.145 14.8851 188.007 14.6219 187.818 14.3769C187.623 14.125 187.395 13.9273 187.132 13.7835C186.876 13.6344 186.604 13.5417 186.315 13.5053C186.032 13.4757 185.745 13.4979 185.456 13.5718C185.171 13.6526 184.907 13.7882 184.663 13.9786C184.413 14.1743 184.214 14.401 184.066 14.6588C183.923 14.9233 183.831 15.1973 183.79 15.4808C183.76 15.7658 183.782 16.0542 183.856 16.3461C183.936 16.6327 184.073 16.9019 184.268 17.1537L183.507 17.7487Z" fill="#1D1D1B"/>
<path d="M188.051 23.6134C187.777 23.2595 187.588 22.8731 187.481 22.4542C187.375 22.0353 187.347 21.6202 187.398 21.209C187.449 20.7977 187.578 20.4024 187.784 20.0229C187.99 19.6435 188.269 19.3163 188.62 19.0412C188.972 18.7662 189.352 18.5777 189.762 18.4759C190.178 18.3687 190.59 18.3409 190.999 18.3925C191.414 18.4388 191.81 18.5656 192.187 18.7729C192.564 18.9802 192.889 19.2608 193.162 19.6148C193.451 19.9891 193.644 20.4005 193.741 20.8489C193.843 21.304 193.855 21.7478 193.776 22.1802L192.836 22.0154C192.88 21.7077 192.867 21.3958 192.797 21.0798C192.726 20.7637 192.591 20.4764 192.392 20.2178C192.197 19.9659 191.969 19.7681 191.706 19.6244C191.443 19.4806 191.167 19.3905 190.879 19.3541C190.591 19.3177 190.301 19.3364 190.011 19.4104C189.727 19.4912 189.463 19.6268 189.219 19.8172C188.969 20.0129 188.77 20.2396 188.622 20.4973C188.479 20.7619 188.39 21.0393 188.353 21.3296C188.317 21.6199 188.336 21.911 188.409 22.2028C188.49 22.4894 188.627 22.7586 188.821 23.0104L188.051 23.6134Z" fill="#1D1D1B"/>
<path d="M195.995 24.9275L194.418 22.8855L197.725 20.2991L198.316 21.0648L195.78 23.0483L196.766 24.3245C197.039 24.6784 197.226 25.0614 197.327 25.4735C197.434 25.8924 197.461 26.3075 197.41 26.7187C197.359 27.13 197.23 27.5253 197.024 27.9048C196.825 28.2789 196.55 28.6035 196.198 28.8785L193.662 30.862L193.063 30.086L195.599 28.1026C195.849 27.9069 196.046 27.6768 196.189 27.4122C196.337 27.1545 196.425 26.8831 196.455 26.5981C196.496 26.3146 196.477 26.0296 196.397 25.743C196.323 25.4512 196.189 25.1793 195.995 24.9275Z" fill="#1D1D1B"/>
<path d="M196.787 29.6201C197.138 29.3451 197.519 29.1566 197.928 29.0548C198.344 28.9476 198.757 28.9198 199.165 28.9714C199.581 29.0177 199.974 29.1411 200.346 29.3416C200.723 29.5489 201.048 29.8295 201.321 30.1835C201.594 30.5374 201.781 30.9204 201.883 31.3325C201.989 31.7514 202.013 32.1691 201.955 32.5856C201.909 33.0037 201.783 33.4024 201.577 33.7819C201.378 34.156 201.103 34.4806 200.751 34.7556L198.205 36.747L197.606 35.9711L200.152 33.9797C200.396 33.7893 200.589 33.5618 200.732 33.2973C200.88 33.0395 200.972 32.7655 201.008 32.4752C201.044 32.1849 201.025 31.8938 200.952 31.602C200.879 31.3101 200.745 31.0383 200.55 30.7864C200.356 30.5346 200.127 30.3368 199.864 30.193C199.602 30.0493 199.326 29.9592 199.038 29.9228C198.749 29.8864 198.46 29.9051 198.17 29.9791C197.885 30.0599 197.621 30.1955 197.378 30.3859L196.787 29.6201Z" fill="#1D1D1B"/>
<path d="M205.822 36.098C206.09 36.4451 206.274 36.8247 206.375 37.2368C206.489 37.6504 206.52 38.0628 206.468 38.4741C206.417 38.8853 206.286 39.2773 206.075 39.6499C205.876 40.0241 205.604 40.346 205.259 40.6157C204.907 40.8908 204.523 41.0819 204.107 41.1891C203.703 41.2978 203.297 41.3263 202.888 41.2747C202.486 41.2178 202.1 41.0831 201.73 40.8705C201.365 40.6647 201.049 40.3882 200.781 40.0411L201.542 39.4461C201.731 39.6911 201.953 39.8881 202.209 40.0372C202.472 40.1809 202.742 40.2703 203.018 40.3052C203.307 40.3416 203.59 40.3221 203.868 40.2466C204.158 40.1726 204.424 40.0404 204.668 39.85C204.911 39.6596 205.104 39.4321 205.247 39.1676C205.395 38.9098 205.484 38.6385 205.513 38.3535C205.555 38.07 205.535 37.7849 205.455 37.4984C205.382 37.2065 205.25 36.9381 205.061 36.693C204.872 36.448 204.646 36.2536 204.383 36.1099C204.132 35.9676 203.863 35.8783 203.574 35.8419C203.298 35.807 203.015 35.8265 202.725 35.9005C202.44 35.9812 202.176 36.1168 201.933 36.3072L201.342 35.5415C201.686 35.2718 202.061 35.0825 202.465 34.9738C202.881 34.8667 203.294 34.8389 203.702 34.8905C204.111 34.9421 204.497 35.0708 204.862 35.2766C205.234 35.4771 205.554 35.7509 205.822 36.098Z" fill="#1D1D1B"/>
<path d="M203.899 44.1224L203.308 43.3567L210.925 37.3984L211.516 38.1642L203.899 44.1224Z" fill="#1D1D1B"/>
<path d="M211.548 43.516C211.816 43.8632 212.001 44.2428 212.102 44.6548C212.215 45.0684 212.246 45.4809 212.195 45.8921C212.144 46.3034 212.012 46.6953 211.801 47.0679C211.602 47.4421 211.33 47.764 210.985 48.0338C210.634 48.3088 210.25 48.4999 209.834 48.6071C209.429 48.7158 209.023 48.7443 208.615 48.6927C208.213 48.6359 207.827 48.5011 207.457 48.2885C207.092 48.0827 206.775 47.8062 206.507 47.4591L207.268 46.8641C207.457 47.1091 207.68 47.3062 207.936 47.4552C208.199 47.599 208.468 47.6883 208.745 47.7232C209.033 47.7596 209.316 47.7401 209.594 47.6646C209.884 47.5906 210.151 47.4584 210.394 47.268C210.637 47.0776 210.831 46.8501 210.973 46.5856C211.121 46.3279 211.21 46.0565 211.24 45.7715C211.281 45.488 211.262 45.203 211.181 44.9164C211.108 44.6245 210.977 44.3561 210.787 44.1111C210.598 43.866 210.372 43.6716 210.11 43.5279C209.859 43.3856 209.589 43.2963 209.301 43.2599C209.024 43.225 208.741 43.2445 208.451 43.3185C208.167 43.3993 207.903 43.5348 207.659 43.7253L207.068 42.9595C207.413 42.6898 207.787 42.5006 208.191 42.3919C208.608 42.2847 209.02 42.2569 209.428 42.3085C209.837 42.3601 210.224 42.4888 210.589 42.6946C210.96 42.8951 211.28 43.1689 211.548 43.516Z" fill="#1D1D1B"/>
<path d="M213.003 55.8739C212.658 56.1437 212.281 56.3295 211.872 56.4314C211.461 56.5454 211.051 56.5766 210.643 56.525C210.234 56.4734 209.845 56.3413 209.475 56.1287C209.103 55.9282 208.781 55.651 208.507 55.297C208.239 54.9499 208.027 54.5975 207.87 54.2398C207.713 53.8822 207.616 53.5381 207.578 53.2077C207.545 52.8841 207.568 52.5768 207.647 52.2858C207.724 52.0068 207.864 51.7665 208.066 51.5647L208.776 52.4836C208.699 52.6091 208.64 52.7429 208.597 52.885C208.555 53.0271 208.548 53.1858 208.575 53.3613C208.595 53.5419 208.659 53.7374 208.767 53.9476C208.874 54.1699 209.041 54.4214 209.268 54.702C209.462 54.9538 209.691 55.1516 209.954 55.2954C210.21 55.4444 210.479 55.5338 210.763 55.5634C211.044 55.6051 211.327 55.5855 211.612 55.5048C211.902 55.4308 212.169 55.2986 212.412 55.1082L214.948 53.1248C215.191 52.9344 215.384 52.7069 215.527 52.4423C215.675 52.1846 215.767 51.9106 215.803 51.6203C215.845 51.3368 215.825 51.0518 215.745 50.7652C215.672 50.4733 215.538 50.2015 215.343 49.9497C215.159 49.7114 214.936 49.5204 214.673 49.3767C214.423 49.2344 214.153 49.1451 213.865 49.1087C213.576 49.0723 213.287 49.091 212.997 49.165C212.707 49.239 212.44 49.3712 212.197 49.5616C211.954 49.752 211.761 49.9795 211.618 50.244C211.475 50.5085 211.385 50.786 211.349 51.0763C211.313 51.3666 211.329 51.6542 211.397 51.9393C211.478 52.2258 211.61 52.4882 211.794 52.7265L211.033 53.3215C210.765 52.9744 210.574 52.594 210.461 52.1804C210.36 51.7683 210.331 51.3593 210.376 50.9534C210.427 50.5421 210.552 50.1494 210.752 49.7753C210.963 49.4026 211.248 49.0762 211.606 48.7958C211.951 48.5261 212.325 48.3369 212.729 48.2282C213.146 48.121 213.558 48.0932 213.966 48.1448C214.375 48.1964 214.762 48.3251 215.127 48.5309C215.504 48.7382 215.826 49.0154 216.094 49.3626C216.367 49.7165 216.554 50.0995 216.656 50.5116C216.769 50.9252 216.8 51.3376 216.749 51.7488C216.697 52.1601 216.566 52.552 216.355 52.9247C216.156 53.2988 215.884 53.6207 215.539 53.8905L213.003 55.8739Z" fill="#1D1D1B"/>
<path d="M217.159 58.7503L211.711 59.5734L211.041 58.7056L216.474 57.862L218.648 52.7553L219.334 53.6435L217.159 58.7503Z" fill="#1D1D1B"/>
</svg>
