<svg width="19" height="19" viewBox="0 0 19 19" fill="none" xmlns="http://www.w3.org/2000/svg">
<path d="M18.7387 14.4138C18.5716 15.6841 17.9477 16.8502 16.9837 17.6942C16.0196 18.5382 14.7813 19.0023 13.5 19.0001C6.05624 19.0001 -6.77569e-06 12.9438 -6.77569e-06 5.50005C-0.00230363 4.21876 0.461887 2.98045 1.30587 2.01639C2.14985 1.05234 3.3159 0.428467 4.58624 0.261304C4.90748 0.22208 5.23279 0.2878 5.51361 0.448653C5.79442 0.609506 6.01569 0.856865 6.14437 1.1538L8.12437 5.57412V5.58537C8.22289 5.81267 8.26358 6.06083 8.2428 6.30769C8.22202 6.55455 8.14043 6.79242 8.00531 7.00005C7.98843 7.02537 7.97062 7.0488 7.95187 7.07224L5.99999 9.38599C6.70218 10.8129 8.19468 12.2922 9.64031 12.9963L11.9222 11.0547C11.9446 11.0359 11.9681 11.0184 11.9925 11.0022C12.2 10.8639 12.4386 10.7794 12.687 10.7565C12.9353 10.7336 13.1854 10.7729 13.4147 10.871L13.4269 10.8766L17.8434 12.8557C18.1409 12.9839 18.3889 13.205 18.5502 13.4858C18.7116 13.7667 18.7778 14.0922 18.7387 14.4138Z" fill="#FCEE0A"/>
</svg>
